<svg id="_019_transport" data-name="019_transport" xmlns="http://www.w3.org/2000/svg" viewBox="0 0 24 24"><defs><style>.cls-1{fill:#333;}</style></defs><path class="cls-1" d="M17,22H7A4,4,0,0,1,3.3,19.58L1.08,14.39A1,1,0,0,1,2,13H7a1,1,0,0,1,.89.55L8.62,15h3.76l.73-1.45A1,1,0,0,1,14,13h8a1,1,0,0,1,.92,1.39L20.7,19.58A4,4,0,0,1,17,22ZM3.52,15l1.62,3.79A2,2,0,0,0,7,20H17a2,2,0,0,0,1.84-1.21L20.48,15H14.62l-.73,1.45A1,1,0,0,1,13,17H8a1,1,0,0,1-.89-.55L6.38,15Z"/><path class="cls-1" d="M20,15a1,1,0,0,1-1-1V10H5v1a1,1,0,0,1-2,0V9A1,1,0,0,1,4,8H20a1,1,0,0,1,1,1v5A1,1,0,0,1,20,15Z"/><path class="cls-1" d="M17,17a1,1,0,0,1-1-1V15a1,1,0,0,1,2,0v1A1,1,0,0,1,17,17Z"/><path class="cls-1" d="M8,10A1,1,0,0,1,7,9V3A1,1,0,0,1,9,3V9A1,1,0,0,1,8,10Z"/><path class="cls-1" d="M12,10a1,1,0,0,1-1-1V3a1,1,0,0,1,2,0V9A1,1,0,0,1,12,10Z"/><path class="cls-1" d="M16,10a1,1,0,0,1-1-1V3a1,1,0,0,1,2,0V9A1,1,0,0,1,16,10Z"/></svg>