<svg id="_019_transport" data-name="019_transport" xmlns="http://www.w3.org/2000/svg" viewBox="0 0 24 24"><defs><style>.cls-1{fill:#333;}</style></defs><path class="cls-1" d="M5.5,23A3.5,3.5,0,1,1,9,19.5,3.5,3.5,0,0,1,5.5,23Zm0-5A1.5,1.5,0,1,0,7,19.5,1.5,1.5,0,0,0,5.5,18Z"/><path class="cls-1" d="M14.5,23A3.5,3.5,0,1,1,18,19.5,3.5,3.5,0,0,1,14.5,23Zm0-5A1.5,1.5,0,1,0,16,19.5,1.5,1.5,0,0,0,14.5,18Z"/><path class="cls-1" d="M18,17a1,1,0,0,1-1-1v-.48A1.52,1.52,0,0,0,15.48,14H14a1,1,0,0,1-.81-.42L8.49,7H6v6a1,1,0,0,1-1,1H4a1,1,0,0,0-1,1v1a1,1,0,0,1-2,0V15a3,3,0,0,1,3-3V6A1,1,0,0,1,5,5H9a1,1,0,0,1,.81.42L14.51,12h1A3.53,3.53,0,0,1,19,15.52V16A1,1,0,0,1,18,17Z"/><path class="cls-1" d="M12,21H8a1,1,0,0,1,0-2h4a1,1,0,0,1,0,2Z"/><path class="cls-1" d="M14,14H8a1,1,0,0,1,0-2h6a1,1,0,0,1,0,2Z"/><polygon class="cls-1" points="14 13 14 13 10 7 10 13 14 13"/><path class="cls-1" d="M13,8a1,1,0,0,1-.71-.29,1,1,0,0,1,0-1.42l3-3a1,1,0,1,1,1.42,1.42l-3,3A1,1,0,0,1,13,8Z"/><path class="cls-1" d="M20,10a1,1,0,0,1-.78-.38l-4-5a1,1,0,1,1,1.56-1.24l4,5a1,1,0,0,1-.16,1.4A1,1,0,0,1,20,10Z"/><path class="cls-1" d="M21,14a1,1,0,0,1-1-1V10H17a1,1,0,0,1,0-2h4a1,1,0,0,1,1,1v4A1,1,0,0,1,21,14Z"/><polygon class="cls-1" points="21 13 17 9 21 9 21 13"/></svg>