<svg id="_019_transport" data-name="019_transport" xmlns="http://www.w3.org/2000/svg" viewBox="0 0 24 24"><defs><style>.cls-1{fill:#333;}</style></defs><path class="cls-1" d="M20,18H4c-1.18,0-1.75-1.31-1.75-4a11.43,11.43,0,0,1,.21-2.28C2.78,10.3,3.47,10,4,10H20c1.18,0,1.75,1.31,1.75,4S21.18,18,20,18ZM4.44,16H19.56a10.76,10.76,0,0,0,0-4H4.44A10.76,10.76,0,0,0,4.44,16Z"/><path class="cls-1" d="M20,12a1,1,0,0,1-.89-.55L18.86,11a1,1,0,0,1,.45-1.35,1,1,0,0,1,1.34.45l.24.48a1,1,0,0,1-.44,1.34A.93.93,0,0,1,20,12ZM4,12a.93.93,0,0,1-.45-.11,1,1,0,0,1-.44-1.34L5.16,6.44A4.38,4.38,0,0,1,9.11,4h5.78a4.38,4.38,0,0,1,3.95,2.44,1,1,0,0,1-.43,1.37,1,1,0,0,1-1.33-.42A2.43,2.43,0,0,0,14.89,6H9.11A2.4,2.4,0,0,0,7,7.33L4.89,11.45A1,1,0,0,1,4,12Z"/><path class="cls-1" d="M21,11H20a1,1,0,0,1,0-2h1a1,1,0,0,1,0,2Z"/><path class="cls-1" d="M4,11H3A1,1,0,0,1,3,9H4a1,1,0,0,1,0,2Z"/><rect class="cls-1" x="3" y="16" width="3" height="5" rx="1.5"/><rect class="cls-1" x="18" y="16" width="3" height="5" rx="1.5"/><path class="cls-1" d="M4,11H8a0,0,0,0,1,0,0v1a2,2,0,0,1-2,2H4a0,0,0,0,1,0,0V11A0,0,0,0,1,4,11Z"/><path class="cls-1" d="M16,11h4a0,0,0,0,1,0,0v3a0,0,0,0,1,0,0H18a2,2,0,0,1-2-2V11A0,0,0,0,1,16,11Z"/></svg>