<svg id="_019_transport" data-name="019_transport" xmlns="http://www.w3.org/2000/svg" viewBox="0 0 24 24"><defs><style>.cls-1{fill:#333;}</style></defs><path class="cls-1" d="M14,18C6.62,18,1.45,11.9,1.23,11.64a1,1,0,0,1,0-1.28C1.45,10.1,6.62,4,14,4c6.64,0,9,3.62,9,7a6.35,6.35,0,0,1-2.92,5.48A1,1,0,1,1,19,14.81,4.36,4.36,0,0,0,21,11c0-3.18-2.55-5-7-5C8.89,6,4.84,9.52,3.37,11,4.84,12.48,8.89,16,14,16a14.41,14.41,0,0,0,1.65-.09,1,1,0,1,1,.24,2A16.29,16.29,0,0,1,14,18Z"/><path class="cls-1" d="M3,9V6a1,1,0,0,1,1.6-.8L7,7Z"/><path class="cls-1" d="M3,13v3a1,1,0,0,0,1.6.8L7,15Z"/><path class="cls-1" d="M14,22H12a3,3,0,0,1-3-3V17a1,1,0,0,1,2,0v2a1,1,0,0,0,1,1h2a1,1,0,0,0,1-1V17a1,1,0,0,1,2,0v2A3,3,0,0,1,14,22Z"/><path class="cls-1" d="M9,12H3a1,1,0,0,1,0-2H9a1,1,0,0,1,0,2Z"/></svg>