<svg id="_019_transport" data-name="019_transport" xmlns="http://www.w3.org/2000/svg" viewBox="0 0 24 24"><defs><style>.cls-1{fill:#333;}</style></defs><path class="cls-1" d="M16,17a1,1,0,0,1,1-1h0a1,1,0,0,1,1,1h0a1,1,0,0,1-1,1h0A1,1,0,0,1,16,17Zm-4,0a1,1,0,0,1,1-1h0a1,1,0,0,1,1,1h0a1,1,0,0,1-1,1h0A1,1,0,0,1,12,17ZM8,17a1,1,0,0,1,1-1H9a1,1,0,0,1,1,1h0a1,1,0,0,1-1,1H9A1,1,0,0,1,8,17Z"/><path class="cls-1" d="M18,22H8A5,5,0,0,1,8,12h.57a1,1,0,0,1,0,2H8a3,3,0,0,0,0,6H18a3,3,0,0,0,0-6H17a1,1,0,0,1-1-1V11a3,3,0,0,0-5.77-1.15,1,1,0,0,1-1.31.54,1,1,0,0,1-.54-1.3A5,5,0,0,1,18,11v1a5,5,0,0,1,0,10Z"/><path class="cls-1" d="M13,8a1,1,0,0,1-1-1V4a2,2,0,0,1,2-2,1,1,0,0,1,0,2V7A1,1,0,0,1,13,8Z"/><path class="cls-1" d="M4,18H2a1,1,0,0,1,0-2H4a1,1,0,0,1,0,2Z"/><path class="cls-1" d="M11,14H9a1,1,0,0,1,0-2h2a1,1,0,0,1,0,2Z"/></svg>