<svg id="_019_transport" data-name="019_transport" xmlns="http://www.w3.org/2000/svg" viewBox="0 0 24 24"><defs><style>.cls-1{fill:#333;}</style></defs><path class="cls-1" d="M15,22H3a1,1,0,0,1-1-1V6A4,4,0,0,1,6,2h6a4,4,0,0,1,4,4v9.57a1,1,0,0,1-2,0V6a2,2,0,0,0-2-2H6A2,2,0,0,0,4,6V20H14v-.43a1,1,0,0,1,2,0V21A1,1,0,0,1,15,22Z"/><path class="cls-1" d="M17,17H15a1,1,0,0,1,0-2h2a1,1,0,0,0,1-1V7a3,3,0,0,1,3-3,1,1,0,0,1,0,2,1,1,0,0,0-1,1v7A3,3,0,0,1,17,17Z"/><rect class="cls-1" x="18" y="8" width="4" height="4" rx="1"/><path class="cls-1" d="M8.5,19A.94.94,0,0,1,8,18.83a1,1,0,0,1-.28-1.38l1-1.45H7.5a1,1,0,0,1-.88-.53,1,1,0,0,1,0-1l2-3a1,1,0,0,1,1.66,1.1L9.37,14H10.5a1,1,0,0,1,.88.53,1,1,0,0,1-.05,1l-2,3A1,1,0,0,1,8.5,19Z"/><path class="cls-1" d="M11,9H7A1,1,0,0,1,7,7h4a1,1,0,0,1,0,2Z"/></svg>