<svg id="_019_transport" data-name="019_transport" xmlns="http://www.w3.org/2000/svg" viewBox="0 0 24 24"><defs><style>.cls-1{fill:#333;}</style></defs><path class="cls-1" d="M12,16a7.5,7.5,0,1,1,7.5-7.5A7.5,7.5,0,0,1,12,16ZM12,3a5.5,5.5,0,1,0,5.5,5.5A5.51,5.51,0,0,0,12,3Z"/><path class="cls-1" d="M12,16c-2.4,0-3.5-3.89-3.5-7.5S9.6,1,12,1s3.5,3.89,3.5,7.5S14.4,16,12,16ZM12,3c-.43.07-1.5,2.07-1.5,5.5S11.57,13.93,12,14s1.5-2.07,1.5-5.5S12.43,3.07,12,3Z"/><path class="cls-1" d="M13.28,23H10.72a2,2,0,0,1-1.9-1.37l-.77-2.31a1,1,0,1,1,1.9-.64L10.72,21h2.56l.77-2.32a1,1,0,1,1,1.9.64l-.77,2.31A2,2,0,0,1,13.28,23Z"/><path class="cls-1" d="M8.06,16.9a1,1,0,0,1-.94-.68L6.05,13.07a1,1,0,0,1,.62-1.26,1,1,0,0,1,1.27.62L9,15.58a1,1,0,0,1-.62,1.27A1.26,1.26,0,0,1,8.06,16.9Z"/><path class="cls-1" d="M15.92,16.9a1.25,1.25,0,0,1-.32,0A1,1,0,0,1,15,15.58L16,12.43a1,1,0,0,1,1.27-.62,1,1,0,0,1,.63,1.26l-1.07,3.15A1,1,0,0,1,15.92,16.9Z"/><path class="cls-1" d="M12,18a1,1,0,0,1-1-1V15a1,1,0,0,1,2,0v2A1,1,0,0,1,12,18Z"/></svg>