<svg id="_019_transport" data-name="019_transport" xmlns="http://www.w3.org/2000/svg" viewBox="0 0 24 24"><defs><style>.cls-1{fill:#333;}</style></defs><path class="cls-1" d="M7,22a3,3,0,1,1,3-3A3,3,0,0,1,7,22Zm0-4a1,1,0,1,0,1,1A1,1,0,0,0,7,18Z"/><path class="cls-1" d="M18,22a3,3,0,1,1,3-3A3,3,0,0,1,18,22Zm0-4a1,1,0,1,0,1,1A1,1,0,0,0,18,18Z"/><path class="cls-1" d="M5,20H3a2,2,0,0,1-2-2V15a3,3,0,0,1,3-3h.38L5.55,9.66A3,3,0,0,1,8.24,8h3.93a3,3,0,0,1,2.12.88L17.41,12h2.07A3.53,3.53,0,0,1,23,15.52V16a1,1,0,0,1-2,0v-.48A1.52,1.52,0,0,0,19.48,14H17a1,1,0,0,1-.71-.29l-3.41-3.42a1,1,0,0,0-.71-.29H8.24a1,1,0,0,0-.9.55l-1.45,2.9A1,1,0,0,1,5,14H4a1,1,0,0,0-1,1v3H5a1,1,0,0,1,0,2Z"/><path class="cls-1" d="M17,13H13a2,2,0,0,1-2-2V9h2Z"/><path class="cls-1" d="M16,20H9a1,1,0,0,1,0-2h7a1,1,0,0,1,0,2Z"/><path class="cls-1" d="M13,13H10a1,1,0,0,1,0-2h3a1,1,0,0,1,0,2Z"/></svg>