<svg id="_019_transport" data-name="019_transport" xmlns="http://www.w3.org/2000/svg" viewBox="0 0 24 24"><defs><style>.cls-1{fill:#333;}</style></defs><path class="cls-1" d="M12,16C6.53,16,1,14.45,1,11.5c0-.71.34-1.76,2-2.69a1,1,0,0,1,1,1.74c-.71.4-1,.76-1,.95,0,.88,3.42,2.5,9,2.5s9-1.62,9-2.5c0-.38-.89-1.21-3.27-1.83A1,1,0,0,1,17,8.75,5,5,0,0,0,7,8.53a1,1,0,1,1-2-.18,7,7,0,0,1,13.87-.42C21.56,8.74,23,10,23,11.5,23,14.45,17.47,16,12,16Z"/><path class="cls-1" d="M12,11.3c-3.48,0-7-1-7-3.1a1,1,0,1,1,2,0c.17.26,1.87,1.1,5,1.1s4.83-.84,5-1.19a1,1,0,0,1,1-1,1,1,0,0,1,1,1C19,10.34,15.48,11.3,12,11.3Z"/><path class="cls-1" d="M12,23c-2.49,0-5-.77-5-2.5,0-.22,0-.36,2.06-5.85a1,1,0,0,1,1.88.7c-.75,2-1.58,4.23-1.87,5.06A6,6,0,0,0,12,21a6,6,0,0,0,2.93-.59c-.12-.33-.37-1-.9-2.47a1,1,0,0,1,1.87-.69c1.1,3,1.1,3,1.1,3.25C17,22.23,14.49,23,12,23Z"/></svg>