<svg id="_019_transport" data-name="019_transport" xmlns="http://www.w3.org/2000/svg" viewBox="0 0 24 24"><defs><style>.cls-1{fill:#333;}</style></defs><path class="cls-1" d="M17,18a1,1,0,0,1-.3,0A1,1,0,0,1,16,16.7l1.55-5L12,10.32,6.41,11.71,8,16.7A1,1,0,1,1,6,17.3l-1.85-6a1,1,0,0,1,.08-.79A1,1,0,0,1,4.9,10l6.86-1.71a1,1,0,0,1,.48,0L19.1,10a1,1,0,0,1,.63.48,1,1,0,0,1,.08.79L18,17.3A1,1,0,0,1,17,18Z"/><path class="cls-1" d="M15.94,10.29a1,1,0,0,1-1-1V7.05L12,6.32l-2.94.73V9.29a1,1,0,1,1-2,0v-3a1,1,0,0,1,.76-1l3.94-1a1,1,0,0,1,.48,0l3.94,1a1,1,0,0,1,.76,1v3A1,1,0,0,1,15.94,10.29Z"/><path class="cls-1" d="M9,15a1,1,0,0,1-.71-.29,1.15,1.15,0,0,1-.21-.33A1,1,0,0,1,8,14a1.05,1.05,0,0,1,.29-.71l.15-.12.18-.09L8.8,13a1,1,0,0,1,.91.27A1,1,0,0,1,10,14a1,1,0,0,1-.08.38,1,1,0,0,1-.21.33A1.05,1.05,0,0,1,9,15Z"/><path class="cls-1" d="M12,6.29a1,1,0,0,1-1-1v-3a1,1,0,1,1,2,0v3A1,1,0,0,1,12,6.29Z"/><path class="cls-1" d="M18,23a1,1,0,0,1-.71-.29L16,21.41l-1.29,1.3a1,1,0,0,1-1.42,0L12,21.41l-1.29,1.3a1,1,0,0,1-1.42,0L8,21.41l-1.29,1.3a1,1,0,0,1-1.42,0l-2-2a1,1,0,0,1,1.42-1.42L6,20.59l1.29-1.3a1,1,0,0,1,1.42,0L10,20.59l1.29-1.3a1,1,0,0,1,1.42,0L14,20.59l1.29-1.3a1,1,0,0,1,1.42,0L18,20.59l1.29-1.3a1,1,0,0,1,1.42,1.42l-2,2A1,1,0,0,1,18,23Z"/><path class="cls-1" d="M12,16a1,1,0,0,1-1-1V9.29a1,1,0,0,1,2,0V15A1,1,0,0,1,12,16Z"/></svg>