<svg id="_019_transport" data-name="019_transport" xmlns="http://www.w3.org/2000/svg" viewBox="0 0 24 24"><defs><style>.cls-1{fill:#333;}</style></defs><path class="cls-1" d="M7,23a3,3,0,1,1,3-3A3,3,0,0,1,7,23Zm0-4a1,1,0,1,0,1,1A1,1,0,0,0,7,19Z"/><path class="cls-1" d="M18,23a3,3,0,1,1,3-3A3,3,0,0,1,18,23Zm0-4a1,1,0,1,0,1,1A1,1,0,0,0,18,19Z"/><path class="cls-1" d="M5,21H3a2,2,0,0,1-2-2V16a3,3,0,0,1,3-3h.38l1.17-2.34A3,3,0,0,1,8.24,9h3.93a3,3,0,0,1,2.12.88L17.41,13h2.07A3.53,3.53,0,0,1,23,16.52V17a1,1,0,0,1-2,0v-.48A1.52,1.52,0,0,0,19.48,15H17a1,1,0,0,1-.71-.29l-3.41-3.42a1,1,0,0,0-.71-.29H8.24a1,1,0,0,0-.9.55l-1.45,2.9A1,1,0,0,1,5,15H4a1,1,0,0,0-1,1v3H5a1,1,0,0,1,0,2Z"/><path class="cls-1" d="M17,14H13a2,2,0,0,1-2-2V10h2Z"/><path class="cls-1" d="M16,21H9a1,1,0,0,1,0-2h7a1,1,0,0,1,0,2Z"/><path class="cls-1" d="M13,14H10a1,1,0,0,1,0-2h3a1,1,0,0,1,0,2Z"/><path class="cls-1" d="M12,8a1,1,0,0,1-1-1V6a1,1,0,0,1,2,0V7A1,1,0,0,1,12,8Zm0-4a1,1,0,0,1-1-1V2a1,1,0,0,1,2,0V3A1,1,0,0,1,12,4Z"/><path class="cls-1" d="M7.14,7.64a1,1,0,0,1-.37-.07,1,1,0,0,1-.56-1.3l.38-.93a1,1,0,0,1,1.85.75L8.07,7A1,1,0,0,1,7.14,7.64ZM8.63,3.93a.94.94,0,0,1-.37-.07,1,1,0,0,1-.56-1.3l.37-.93a1,1,0,1,1,1.86.74l-.37.93A1,1,0,0,1,8.63,3.93Z"/><path class="cls-1" d="M16.86,7.64A1,1,0,0,1,15.93,7l-.37-.92a1,1,0,1,1,1.85-.75l.38.93a1,1,0,0,1-.56,1.3A1,1,0,0,1,16.86,7.64ZM15.37,3.93a1,1,0,0,1-.93-.63l-.37-.93a1,1,0,0,1,1.86-.74l.37.93a1,1,0,0,1-.56,1.3A.94.94,0,0,1,15.37,3.93Z"/></svg>