<svg id="_019_transport" data-name="019_transport" xmlns="http://www.w3.org/2000/svg" viewBox="0 0 24 24"><defs><style>.cls-1{fill:#333;}</style></defs><path class="cls-1" d="M5,22a3,3,0,1,1,3-3A3,3,0,0,1,5,22Zm0-4a1,1,0,1,0,1,1A1,1,0,0,0,5,18Z"/><path class="cls-1" d="M19,22a3,3,0,1,1,3-3A3,3,0,0,1,19,22Zm0-4a1,1,0,1,0,1,1A1,1,0,0,0,19,18Z"/><path class="cls-1" d="M13,20H7a1,1,0,0,1,0-2h5V15H3v1a1,1,0,0,1-2,0V14a1,1,0,0,1,1-1H13a1,1,0,0,1,1,1v5A1,1,0,0,1,13,20Z"/><path class="cls-1" d="M22,16a1,1,0,0,1-1-1V12.33L18.8,9.4A1,1,0,0,0,18,9H14v5a1,1,0,0,1-2,0V8a1,1,0,0,1,1-1h5a3,3,0,0,1,2.4,1.2l2.4,3.2a1,1,0,0,1,.2.6v3A1,1,0,0,1,22,16Z"/><path class="cls-1" d="M21,12H19a2,2,0,0,1-2-2V8h2Z"/><path class="cls-1" d="M20,12H17a1,1,0,0,1,0-2h3a1,1,0,0,1,0,2Z"/><path class="cls-1" d="M17,20H13a1,1,0,0,1,0-2h4a1,1,0,0,1,0,2Z"/></svg>