<svg id="_019_transport" data-name="019_transport" xmlns="http://www.w3.org/2000/svg" viewBox="0 0 24 24"><defs><style>.cls-1{fill:#333;}</style></defs><path class="cls-1" d="M6,22a3,3,0,1,1,3-3A3,3,0,0,1,6,22Zm0-4a1,1,0,1,0,1,1A1,1,0,0,0,6,18Z"/><path class="cls-1" d="M18,22a3,3,0,1,1,3-3A3,3,0,0,1,18,22Zm0-4a1,1,0,1,0,1,1A1,1,0,0,0,18,18Z"/><path class="cls-1" d="M13,20H8a1,1,0,0,1,0-2h4V8H4v8a1,1,0,0,1-2,0V7A1,1,0,0,1,3,6H13a1,1,0,0,1,1,1V19A1,1,0,0,1,13,20Z"/><path class="cls-1" d="M21,16a1,1,0,0,1-1-1v-.67L17.8,11.4A1,1,0,0,0,17,11H13a1,1,0,0,1,0-2h4a3,3,0,0,1,2.4,1.2l2.4,3.2a1,1,0,0,1,.2.6v1A1,1,0,0,1,21,16Z"/><path class="cls-1" d="M20,14H18a2,2,0,0,1-2-2V10h2Z"/><path class="cls-1" d="M19,14H16a1,1,0,0,1,0-2h3a1,1,0,0,1,0,2Z"/></svg>