<svg id="_019_transport" data-name="019_transport" xmlns="http://www.w3.org/2000/svg" viewBox="0 0 24 24"><defs><style>.cls-1{fill:#333;}</style></defs><path class="cls-1" d="M15.5,22.17a3,3,0,0,1-2.13-.88l-1.06-1.06a1,1,0,0,1,0-1.42,1,1,0,0,1,1.41,0l1.07,1.07a1,1,0,0,0,1.41,0l.8-.8V11.15a1,1,0,1,1,2,0V19.5a1,1,0,0,1-.29.7l-1.09,1.09A3,3,0,0,1,15.5,22.17Z"/><path class="cls-1" d="M4.48,12a1,1,0,0,1-.71-.3L2.71,10.63a3,3,0,0,1,0-4.25L3.8,5.29A1,1,0,0,1,4.5,5h8.35a1,1,0,1,1,0,2H4.92l-.8.8a1,1,0,0,0,0,1.41l1.07,1.07A1,1,0,0,1,4.48,12Z"/><path class="cls-1" d="M14,15.74h0a1,1,0,0,1-.71-.29l-2.12-2.13a1,1,0,0,1,1.41-1.41L14,13.33l4.46-4.47A5.35,5.35,0,0,0,20,5V4H19a5.35,5.35,0,0,0-3.82,1.58L10.22,10.5a1,1,0,0,1-1.41,0,1,1,0,0,1,0-1.42l4.91-4.91A7.36,7.36,0,0,1,19,2h2a1,1,0,0,1,1,1V5a7.36,7.36,0,0,1-2.17,5.24l-5.17,5.17A1,1,0,0,1,14,15.74Z"/><path class="cls-1" d="M6.32,19.65h-1a1,1,0,0,1-1-1v-1a6.17,6.17,0,0,1,1.82-4.39L7,12.47A1,1,0,0,1,8.4,13.88l-.82.82a4.2,4.2,0,0,0-1.23,2.95,4.28,4.28,0,0,0,3-1.23l.82-.82A1,1,0,1,1,11.53,17l-.82.82A6.23,6.23,0,0,1,6.32,19.65Z"/><path class="cls-1" d="M17,8a.84.84,0,0,1-.38-.08,1,1,0,0,1-.33-.21,1.15,1.15,0,0,1-.21-.33.94.94,0,0,1,0-.76,1.15,1.15,0,0,1,.21-.33,1,1,0,0,1,.33-.21A1,1,0,0,1,17.2,6a.64.64,0,0,1,.18.06.76.76,0,0,1,.18.09l.15.12a1.15,1.15,0,0,1,.21.33.94.94,0,0,1,0,.76,1.15,1.15,0,0,1-.21.33l-.15.12a.76.76,0,0,1-.18.09A.64.64,0,0,1,17.2,8Z"/></svg>