<svg id="_019_transport" data-name="019_transport" xmlns="http://www.w3.org/2000/svg" viewBox="0 0 24 24"><defs><style>.cls-1{fill:#333;}</style></defs><path class="cls-1" d="M7,22a3,3,0,1,1,3-3A3,3,0,0,1,7,22Zm0-4a1,1,0,1,0,1,1A1,1,0,0,0,7,18Z"/><path class="cls-1" d="M18,22a3,3,0,1,1,3-3A3,3,0,0,1,18,22Zm0-4a1,1,0,1,0,1,1A1,1,0,0,0,18,18Z"/><path class="cls-1" d="M16,20H9a1,1,0,0,1,0-2h7a1,1,0,0,1,0,2Z"/><path class="cls-1" d="M5,20H4a2,2,0,0,1-2-2V10A3,3,0,0,1,5,7H15a7,7,0,0,1,7,7v1a1,1,0,0,1-2,0V14a5,5,0,0,0-5-5H5a1,1,0,0,0-1,1v8H5a1,1,0,0,1,0,2Z"/><path class="cls-1" d="M20,14H14a1,1,0,0,1,0-2h6a1,1,0,0,1,0,2Z"/><path class="cls-1" d="M20.91,13A6,6,0,0,0,17,8.35V13Z"/></svg>