<svg id="_019_transport" data-name="019_transport" xmlns="http://www.w3.org/2000/svg" viewBox="0 0 24 24"><defs><style>.cls-1{fill:#333;}</style></defs><path class="cls-1" d="M10,22a3,3,0,1,1,3-3A3,3,0,0,1,10,22Zm0-4a1,1,0,1,0,1,1A1,1,0,0,0,10,18Z"/><path class="cls-1" d="M16,22a3,3,0,1,1,3-3A3,3,0,0,1,16,22Zm0-4a1,1,0,1,0,1,1A1,1,0,0,0,16,18Z"/><path class="cls-1" d="M8,20H3a1,1,0,0,1,0-2H8a1,1,0,0,1,0,2Z"/><path class="cls-1" d="M22,20H18a1,1,0,0,1,0-2h3V17a7,7,0,0,0-7-7H3A1,1,0,0,1,3,8H14a9,9,0,0,1,9,9v2A1,1,0,0,1,22,20Z"/><path class="cls-1" d="M21,15H7a1,1,0,0,1,0-2H21a1,1,0,0,1,0,2Z"/><path class="cls-1" d="M16,9.26V14h5.41A8,8,0,0,0,16,9.26Z"/><path class="cls-1" d="M10,10a1,1,0,0,1-.71-.29l-4-4A1,1,0,0,1,6.71,4.29l4,4a1,1,0,0,1,0,1.42A1,1,0,0,1,10,10Z"/><path class="cls-1" d="M10,6H3A1,1,0,0,1,3,4h7a1,1,0,0,1,0,2Z"/></svg>