<svg id="_019_transport" data-name="019_transport" xmlns="http://www.w3.org/2000/svg" viewBox="0 0 24 24"><defs><style>.cls-1{fill:#333;}</style></defs><path class="cls-1" d="M6,10A4,4,0,0,1,2.45,7.83a1,1,0,1,1,1.77-.91A2,2,0,1,0,6,4,2,2,0,0,0,4.27,5a1,1,0,0,1-1.37.37A1,1,0,0,1,2.54,4,4,4,0,1,1,6,10Z"/><path class="cls-1" d="M18,10a4,4,0,0,1-4-4,3.91,3.91,0,0,1,.07-.76,1,1,0,0,1,2,.38A1.58,1.58,0,0,0,16,6a2,2,0,1,0,2-2,2,2,0,0,0-.74.14,1,1,0,1,1-.75-1.85A4,4,0,1,1,18,10Z"/><path class="cls-1" d="M16.75,21.73a1,1,0,0,1-.41-.09,4,4,0,1,1,3.82-.27,1,1,0,0,1-1.08-1.69A2,2,0,0,0,20,18a2,2,0,1,0-2.83,1.82,1,1,0,0,1-.42,1.91Z"/><path class="cls-1" d="M6,22a4,4,0,0,1-1.49-7.71,1,1,0,0,1,.75,1.85,2,2,0,1,0,1.9.23,1,1,0,0,1,1.16-1.63A4,4,0,0,1,6,22Z"/><path class="cls-1" d="M12,10.5A5.78,5.78,0,0,1,7.54,8.65a1,1,0,0,1,1.52-1.3A3.88,3.88,0,0,0,12,8.5a4.14,4.14,0,0,0,3.05-1.17,1,1,0,1,1,1.48,1.34A6,6,0,0,1,12,10.5Z"/><path class="cls-1" d="M8.3,17a1,1,0,0,1-.76-1.65A5.78,5.78,0,0,1,12,13.5a6,6,0,0,1,4.53,1.83,1,1,0,0,1-1.48,1.34A4.14,4.14,0,0,0,12,15.5a3.88,3.88,0,0,0-2.95,1.15A1,1,0,0,1,8.3,17Z"/><path class="cls-1" d="M8.05,16.75A1,1,0,0,1,7.4,15a3.88,3.88,0,0,0,1.15-3A4.14,4.14,0,0,0,7.38,9,1,1,0,0,1,8.72,7.5,6.09,6.09,0,0,1,10.55,12,5.78,5.78,0,0,1,8.7,16.51,1,1,0,0,1,8.05,16.75Z"/><path class="cls-1" d="M16.05,16.75a1,1,0,0,1-.65-.24A5.78,5.78,0,0,1,13.55,12,6.09,6.09,0,0,1,15.38,7.5,1,1,0,0,1,16.72,9a4.14,4.14,0,0,0-1.17,3,3.88,3.88,0,0,0,1.15,3,1,1,0,0,1-.65,1.76Z"/></svg>