<svg id="_019_transport" data-name="019_transport" xmlns="http://www.w3.org/2000/svg" viewBox="0 0 24 24"><defs><style>.cls-1{fill:#333;}</style></defs><path class="cls-1" d="M6,22a3,3,0,1,1,3-3A3,3,0,0,1,6,22Zm0-4a1,1,0,1,0,1,1A1,1,0,0,0,6,18Z"/><path class="cls-1" d="M19,22a3,3,0,1,1,3-3A3,3,0,0,1,19,22Zm0-4a1,1,0,1,0,1,1A1,1,0,0,0,19,18Z"/><path class="cls-1" d="M14,20H8a1,1,0,0,1,0-2h5V5H3V16a1,1,0,0,1-2,0V5A2,2,0,0,1,3,3H13a2,2,0,0,1,2,2V19A1,1,0,0,1,14,20Z"/><path class="cls-1" d="M21,12H19a2,2,0,0,1-2-2V8h2Z"/><path class="cls-1" d="M20,12H17a1,1,0,0,1,0-2h3a1,1,0,0,1,0,2Z"/><path class="cls-1" d="M8,11A3,3,0,0,1,5,8V4A1,1,0,0,1,7,4V8A1,1,0,0,0,9,8V4a1,1,0,0,1,2,0V8A3,3,0,0,1,8,11Z"/><path class="cls-1" d="M4,11A3,3,0,0,1,1,8V6A1,1,0,0,1,3,6V8A1,1,0,0,0,5,8V4A1,1,0,0,1,7,4V8A3,3,0,0,1,4,11Z"/><path class="cls-1" d="M12,11A3,3,0,0,1,9,8V4a1,1,0,0,1,2,0V8a1,1,0,0,0,2,0V6a1,1,0,0,1,2,0V8A3,3,0,0,1,12,11Z"/><path class="cls-1" d="M22,16a1,1,0,0,1-1-1V12.33L18.8,9.4A1,1,0,0,0,18,9H14a1,1,0,0,1,0-2h4a3,3,0,0,1,2.4,1.2l2.4,3.2a1,1,0,0,1,.2.6v3A1,1,0,0,1,22,16Z"/><path class="cls-1" d="M10,15H6a1,1,0,0,1,0-2h4a1,1,0,0,1,0,2Z"/></svg>