<svg id="_019_transport" data-name="019_transport" xmlns="http://www.w3.org/2000/svg" viewBox="0 0 24 24"><defs><style>.cls-1{fill:#333;}</style></defs><path class="cls-1" d="M9.84,22H8a1,1,0,0,1-.8-.4A1,1,0,0,1,7,20.73l2-6.94a1,1,0,1,1,1.92.55L9.33,20h.51a1,1,0,0,0,.87-.5l3.42-6A1,1,0,0,1,15,13h5a1,1,0,0,0,0-2H15a1,1,0,0,1-.87-.5l-3.42-6A1,1,0,0,0,9.84,4H9.33L11,9.73a1,1,0,0,1-.16.87,1,1,0,0,1-.8.4H5.87a1,1,0,0,1-.74-.32L3.57,9H3.39l1.1,3.32a1,1,0,0,0,1,.68h.63a1,1,0,0,1,0,2H5.44A3,3,0,0,1,2.6,13L1.05,8.32a1,1,0,0,1,.14-.9A1,1,0,0,1,2,7H4a1,1,0,0,1,.73.32L6.3,9H8.67L7,3.27A1,1,0,0,1,7.2,2.4,1,1,0,0,1,8,2H9.84a3,3,0,0,1,2.6,1.51L15.58,9H20a3,3,0,0,1,0,6H15.58l-3.14,5.49A3,3,0,0,1,9.84,22Z"/></svg>