<svg id="_019_transport" data-name="019_transport" xmlns="http://www.w3.org/2000/svg" viewBox="0 0 24 24"><defs><style>.cls-1{fill:#333;}</style></defs><path class="cls-1" d="M7,23a3,3,0,1,1,3-3A3,3,0,0,1,7,23Zm0-4a1,1,0,1,0,1,1A1,1,0,0,0,7,19Z"/><path class="cls-1" d="M18,23a3,3,0,1,1,3-3A3,3,0,0,1,18,23Zm0-4a1,1,0,1,0,1,1A1,1,0,0,0,18,19Z"/><path class="cls-1" d="M5,21H3a2,2,0,0,1-2-2V16a3,3,0,0,1,3-3h.38l1.17-2.34A3,3,0,0,1,8.24,9h3.93a3,3,0,0,1,2.12.88L17.41,13h2.07A3.53,3.53,0,0,1,23,16.52V17a1,1,0,0,1-2,0v-.48A1.52,1.52,0,0,0,19.48,15H17a1,1,0,0,1-.71-.29l-3.41-3.42a1,1,0,0,0-.71-.29H8.24a1,1,0,0,0-.9.55l-1.45,2.9A1,1,0,0,1,5,15H4a1,1,0,0,0-1,1v3H5a1,1,0,0,1,0,2Z"/><path class="cls-1" d="M17,14H13a2,2,0,0,1-2-2V10h2Z"/><path class="cls-1" d="M16,21H9a1,1,0,0,1,0-2h7a1,1,0,0,1,0,2Z"/><path class="cls-1" d="M13,14H10a1,1,0,0,1,0-2h3a1,1,0,0,1,0,2Z"/><path class="cls-1" d="M14.28,6H9A1.5,1.5,0,0,1,9,3h5.28a1.5,1.5,0,1,1,0,3Z"/><path class="cls-1" d="M17.5,8A3.5,3.5,0,0,1,14,4.5,3.46,3.46,0,0,1,15,2a3.58,3.58,0,0,1,5,0,1,1,0,0,1-1.42,1.41,1.53,1.53,0,0,0-2.12,0,1.5,1.5,0,0,0,0,2.12,1.53,1.53,0,0,0,2.12,0A1,1,0,0,1,20,7,3.46,3.46,0,0,1,17.5,8Z"/><path class="cls-1" d="M5.77,8A3.48,3.48,0,0,1,3.29,7a1,1,0,0,1,0-1.41,1,1,0,0,1,1.42,0,1.49,1.49,0,0,0,2.12,0,1.51,1.51,0,0,0,0-2.12,1.49,1.49,0,0,0-2.12,0,1,1,0,0,1-1.42,0A1,1,0,0,1,3.29,2,3.5,3.5,0,1,1,8.24,7,3.46,3.46,0,0,1,5.77,8Z"/></svg>