<svg id="_019_transport" data-name="019_transport" xmlns="http://www.w3.org/2000/svg" viewBox="0 0 24 24"><defs><style>.cls-1{fill:#333;}</style></defs><path class="cls-1" d="M7,22a3,3,0,1,1,3-3A3,3,0,0,1,7,22Zm0-4a1,1,0,1,0,1,1A1,1,0,0,0,7,18Z"/><path class="cls-1" d="M18,22a3,3,0,1,1,3-3A3,3,0,0,1,18,22Zm0-4a1,1,0,1,0,1,1A1,1,0,0,0,18,18Z"/><path class="cls-1" d="M16,20H9a1,1,0,0,1,0-2h7a1,1,0,0,1,0,2Z"/><path class="cls-1" d="M5,20H4a2,2,0,0,1-2-2V10A3,3,0,0,1,5,7H15a7,7,0,0,1,7,7v1a1,1,0,0,1-2,0V14a5,5,0,0,0-5-5H5a1,1,0,0,0-1,1v8H5a1,1,0,0,1,0,2Z"/><path class="cls-1" d="M20,14H17a1,1,0,0,1,0-2h3a1,1,0,0,1,0,2Z"/><path class="cls-1" d="M11,16a1,1,0,0,1-1-1V11a1,1,0,0,1,2,0v4A1,1,0,0,1,11,16Z"/><path class="cls-1" d="M13,14H9a1,1,0,0,1,0-2h4a1,1,0,0,1,0,2Z"/><path class="cls-1" d="M20.91,13A6,6,0,0,0,17,8.35V12a2,2,0,0,0,.28,1Z"/><path class="cls-1" d="M13,9H10A1,1,0,0,1,9,8V6.5a2.5,2.5,0,0,1,5,0V8A1,1,0,0,1,13,9ZM11,7h1V6.5a.5.5,0,0,0-1,0Z"/></svg>