<svg id="_019_transport" data-name="019_transport" xmlns="http://www.w3.org/2000/svg" viewBox="0 0 24 24"><defs><style>.cls-1{fill:#333;}</style></defs><path class="cls-1" d="M10,14H4a1,1,0,0,1-1-1V6a4,4,0,0,1,8,0V9.57a1,1,0,0,1-2,0V6A2,2,0,0,0,5,6v6h5a1,1,0,0,1,0,2Z"/><path class="cls-1" d="M20,14H14.5a1,1,0,0,1,0-2H19V6a2,2,0,0,0-4,0V9.5a1,1,0,0,1-2,0V6a4,4,0,0,1,8,0v7A1,1,0,0,1,20,14Z"/><path class="cls-1" d="M7,22a1,1,0,0,1-.71-.29l-.62-.62a5.68,5.68,0,0,1-1.67-4V16a1,1,0,0,1,2,0v1.05a3.66,3.66,0,0,0,1,2.53,3.66,3.66,0,0,0,1-2.53V16a1,1,0,0,1,2,0v1.05a5.68,5.68,0,0,1-1.67,4l-.62.62A1,1,0,0,1,7,22Z"/><path class="cls-1" d="M17,22a1,1,0,0,1-.71-.29l-.62-.62a5.68,5.68,0,0,1-1.67-4V16a1,1,0,0,1,2,0v1.05a3.66,3.66,0,0,0,1,2.53,3.66,3.66,0,0,0,1-2.53V16a1,1,0,0,1,2,0v1.05a5.68,5.68,0,0,1-1.67,4l-.62.62A1,1,0,0,1,17,22Z"/><path class="cls-1" d="M14,11H10a1,1,0,0,1,0-2h4a1,1,0,0,1,0,2Z"/></svg>