<svg id="_019_transport" data-name="019_transport" xmlns="http://www.w3.org/2000/svg" viewBox="0 0 24 24"><defs><style>.cls-1{fill:#333;}</style></defs><path class="cls-1" d="M5,22a3,3,0,1,1,3-3A3,3,0,0,1,5,22Zm0-4a1,1,0,1,0,1,1A1,1,0,0,0,5,18Z"/><path class="cls-1" d="M13,22a3,3,0,1,1,3-3A3,3,0,0,1,13,22Zm0-4a1,1,0,1,0,1,1A1,1,0,0,0,13,18Z"/><path class="cls-1" d="M3,20a1,1,0,0,1-1-1V11a1,1,0,0,1,1-1H4V5A1,1,0,0,1,5,4H9a1,1,0,0,1,.83.45l6,9a1,1,0,0,1-1.66,1.1L8.46,6H6v5a1,1,0,0,1-1,1H4v7A1,1,0,0,1,3,20Z"/><path class="cls-1" d="M22,20H18a1,1,0,0,1-1-1V7a1,1,0,0,1,2,0V18h3a1,1,0,0,1,0,2Z"/><path class="cls-1" d="M13,12H8a1,1,0,0,1,0-2h5a1,1,0,0,1,0,2Z"/><polygon class="cls-1" points="13 11 9 11 9 5 13 11"/><path class="cls-1" d="M11,20H7a1,1,0,0,1,0-2h4a1,1,0,0,1,0,2Z"/></svg>