<svg id="_019_transport" data-name="019_transport" xmlns="http://www.w3.org/2000/svg" viewBox="0 0 24 24"><defs><style>.cls-1{fill:#333;}</style></defs><path class="cls-1" d="M5.5,21a4.5,4.5,0,1,1,4.5-4.5A4.51,4.51,0,0,1,5.5,21Zm0-7A2.5,2.5,0,1,0,8,16.51,2.5,2.5,0,0,0,5.5,14Z"/><path class="cls-1" d="M18.5,21a4.5,4.5,0,1,1,4.5-4.5A4.51,4.51,0,0,1,18.5,21Zm0-7a2.5,2.5,0,1,0,2.5,2.5A2.5,2.5,0,0,0,18.5,14Z"/><path class="cls-1" d="M12,18a1,1,0,0,1-1-1V13.42L7.8,10.23a1,1,0,0,1,0-1.42l2.82-2.76A1,1,0,1,1,12,7.48l-2.09,2,2.78,2.77A1,1,0,0,1,13,13v4A1,1,0,0,1,12,18Z"/><path class="cls-1" d="M17.32,10.69h-3a1,1,0,0,1-.7-.29l-3-2.92A1,1,0,1,1,12,6.05l2.71,2.64h2.59a1,1,0,0,1,0,2Z"/><circle class="cls-1" cx="14.32" cy="4" r="2"/></svg>