<svg id="_019_transport" data-name="019_transport" xmlns="http://www.w3.org/2000/svg" viewBox="0 0 24 24"><defs><style>.cls-1{fill:#333;}</style></defs><path class="cls-1" d="M17,22H7A4,4,0,0,1,3.3,19.58L1.08,14.39A1,1,0,0,1,2,13H22a1,1,0,0,1,.92,1.39L20.7,19.58A4,4,0,0,1,17,22ZM3.52,15l1.62,3.79A2,2,0,0,0,7,20H17a2,2,0,0,0,1.84-1.21L20.48,15Z"/><path class="cls-1" d="M20,15H5a1,1,0,0,1,0-2H19V8a1,1,0,0,0-1-1H6A1,1,0,0,0,5,8v3a1,1,0,0,1-2,0V8A3,3,0,0,1,6,5H18a3,3,0,0,1,3,3v6A1,1,0,0,1,20,15Z"/><path class="cls-1" d="M17,17a1,1,0,0,1-1-1V14a1,1,0,0,1,2,0v2A1,1,0,0,1,17,17Z"/><path class="cls-1" d="M15,10a1,1,0,0,1,1-1h0a1,1,0,0,1,1,1h0a1,1,0,0,1-1,1h0A1,1,0,0,1,15,10Zm-4,0a1,1,0,0,1,1-1h0a1,1,0,0,1,1,1h0a1,1,0,0,1-1,1h0A1,1,0,0,1,11,10ZM7,10A1,1,0,0,1,8,9H8a1,1,0,0,1,1,1H9a1,1,0,0,1-1,1H8A1,1,0,0,1,7,10Z"/><path class="cls-1" d="M9,7A1,1,0,0,1,8,6V3a1,1,0,0,1,2,0V6A1,1,0,0,1,9,7Z"/></svg>