<svg id="_019_transport" data-name="019_transport" xmlns="http://www.w3.org/2000/svg" viewBox="0 0 24 24"><defs><style>.cls-1{fill:#333;}</style></defs><path class="cls-1" d="M19,21a4,4,0,1,1,4-4A4,4,0,0,1,19,21Zm0-6a2,2,0,1,0,2,2A2,2,0,0,0,19,15Z"/><path class="cls-1" d="M5,21a4,4,0,1,1,4-4A4,4,0,0,1,5,21Zm0-6a2,2,0,1,0,2,2A2,2,0,0,0,5,15Z"/><path class="cls-1" d="M12,18H6a1,1,0,0,1,0-2h6a1,1,0,0,1,0,2Z"/><path class="cls-1" d="M13,15H11a1,1,0,0,1-.71-.29L6.59,11H4a1,1,0,0,1-.71-.29l-1-1A1,1,0,0,1,3.71,8.29l.7.71H7a1,1,0,0,1,.71.29L11.41,13h1.22l3.22-2.76A1,1,0,0,1,16.5,10h3.09A.42.42,0,0,0,20,9.59a.42.42,0,0,0-.12-.3L15.29,4.71a1,1,0,0,1,1.42-1.42l4.58,4.59A2.37,2.37,0,0,1,22,9.59,2.41,2.41,0,0,1,19.59,12H16.87l-3.22,2.76A1,1,0,0,1,13,15Z"/><path class="cls-1" d="M11,11H4A1,1,0,0,1,4,9h6.59l1.7-1.71A1,1,0,0,1,13,7h2a1,1,0,0,1,0,2H13.41l-1.7,1.71A1,1,0,0,1,11,11Z"/><path class="cls-1" d="M18,6v5h1.59a1.41,1.41,0,0,0,1-2.41Z"/></svg>